<mxfile host="app.diagrams.net" modified="2023-12-12T17:06:03.476Z" agent="Mozilla/5.0 (Windows NT 10.0; Win64; x64; rv:120.0) Gecko/20100101 Firefox/120.0" etag="NxZx2vjZ2MIFmypp0tI9" version="22.1.7" type="google">
  <diagram name="Page-1" id="iS4VuwFA2MWF-txj4KCj">
    <mxGraphModel grid="1" page="1" gridSize="10" guides="1" tooltips="1" connect="1" arrows="1" fold="1" pageScale="1" pageWidth="850" pageHeight="1100" math="0" shadow="0">
      <root>
        <mxCell id="0" />
        <mxCell id="1" parent="0" />
        <mxCell id="kTY9XHKxBu9hv5pl7CMH-12" value="&lt;div&gt;Main &lt;br&gt;&lt;/div&gt;&lt;div&gt;Air Tank&lt;br&gt;&lt;/div&gt;" style="whiteSpace=wrap;html=1;aspect=fixed;" vertex="1" parent="1">
          <mxGeometry x="180" y="300" width="140" height="140" as="geometry" />
        </mxCell>
        <mxCell id="kTY9XHKxBu9hv5pl7CMH-14" value="&lt;div&gt;Tank Pressure &lt;br&gt;&lt;/div&gt;&lt;div&gt;Sensor&lt;br&gt;&lt;/div&gt;" style="rounded=0;whiteSpace=wrap;html=1;" vertex="1" parent="1">
          <mxGeometry x="20" y="210" width="120" height="60" as="geometry" />
        </mxCell>
        <mxCell id="kTY9XHKxBu9hv5pl7CMH-15" value="Pressure Gauge " style="rounded=0;whiteSpace=wrap;html=1;" vertex="1" parent="1">
          <mxGeometry x="190" y="210" width="120" height="60" as="geometry" />
        </mxCell>
        <mxCell id="kTY9XHKxBu9hv5pl7CMH-16" value="Air Fill" style="rounded=0;whiteSpace=wrap;html=1;" vertex="1" parent="1">
          <mxGeometry x="360" y="210" width="120" height="60" as="geometry" />
        </mxCell>
        <mxCell id="kTY9XHKxBu9hv5pl7CMH-17" value="&lt;div&gt;STBD Pressure &lt;br&gt;&lt;/div&gt;&lt;div&gt;Sensor&lt;br&gt;&lt;/div&gt;" style="rounded=0;whiteSpace=wrap;html=1;" vertex="1" parent="1">
          <mxGeometry x="520" y="380" width="120" height="60" as="geometry" />
        </mxCell>
        <mxCell id="kTY9XHKxBu9hv5pl7CMH-19" value="&lt;div&gt;Port Pressure &lt;br&gt;&lt;/div&gt;&lt;div&gt;Sensor&lt;br&gt;&lt;/div&gt;" style="rounded=0;whiteSpace=wrap;html=1;" vertex="1" parent="1">
          <mxGeometry x="520" y="300" width="120" height="60" as="geometry" />
        </mxCell>
        <mxCell id="kTY9XHKxBu9hv5pl7CMH-20" value="Air Compressor" style="rounded=0;whiteSpace=wrap;html=1;" vertex="1" parent="1">
          <mxGeometry x="20" y="300" width="120" height="60" as="geometry" />
        </mxCell>
        <mxCell id="kTY9XHKxBu9hv5pl7CMH-22" value="&lt;div&gt;Port Fill&lt;/div&gt;&lt;div&gt;Solenoid&lt;br&gt;&lt;/div&gt;" style="rounded=0;whiteSpace=wrap;html=1;" vertex="1" parent="1">
          <mxGeometry x="360" y="300" width="120" height="60" as="geometry" />
        </mxCell>
        <mxCell id="kTY9XHKxBu9hv5pl7CMH-24" value="&lt;div&gt;STBD Fill&lt;/div&gt;&lt;div&gt;Solenoid&lt;br&gt;&lt;/div&gt;" style="rounded=0;whiteSpace=wrap;html=1;" vertex="1" parent="1">
          <mxGeometry x="360" y="380" width="120" height="60" as="geometry" />
        </mxCell>
        <mxCell id="kTY9XHKxBu9hv5pl7CMH-25" value="Port Cannon" style="rounded=0;whiteSpace=wrap;html=1;" vertex="1" parent="1">
          <mxGeometry x="680" y="300" width="120" height="60" as="geometry" />
        </mxCell>
        <mxCell id="kTY9XHKxBu9hv5pl7CMH-26" value="STBD Cannon" style="rounded=0;whiteSpace=wrap;html=1;" vertex="1" parent="1">
          <mxGeometry x="680" y="380" width="120" height="60" as="geometry" />
        </mxCell>
        <mxCell id="kTY9XHKxBu9hv5pl7CMH-27" value="" style="endArrow=none;html=1;rounded=0;exitX=1;exitY=0.5;exitDx=0;exitDy=0;entryX=0;entryY=0.216;entryDx=0;entryDy=0;entryPerimeter=0;" edge="1" parent="1" source="kTY9XHKxBu9hv5pl7CMH-20" target="kTY9XHKxBu9hv5pl7CMH-12">
          <mxGeometry width="50" height="50" relative="1" as="geometry">
            <mxPoint x="610" y="300" as="sourcePoint" />
            <mxPoint x="660" y="250" as="targetPoint" />
          </mxGeometry>
        </mxCell>
        <mxCell id="kTY9XHKxBu9hv5pl7CMH-28" value="" style="endArrow=none;html=1;rounded=0;exitX=1;exitY=0.5;exitDx=0;exitDy=0;entryX=0.145;entryY=-0.013;entryDx=0;entryDy=0;entryPerimeter=0;" edge="1" parent="1" source="kTY9XHKxBu9hv5pl7CMH-14" target="kTY9XHKxBu9hv5pl7CMH-12">
          <mxGeometry width="50" height="50" relative="1" as="geometry">
            <mxPoint x="310" y="310" as="sourcePoint" />
            <mxPoint x="360" y="260" as="targetPoint" />
            <Array as="points">
              <mxPoint x="150" y="240" />
              <mxPoint x="150" y="290" />
              <mxPoint x="200" y="290" />
            </Array>
          </mxGeometry>
        </mxCell>
        <mxCell id="kTY9XHKxBu9hv5pl7CMH-29" value="" style="endArrow=none;html=1;rounded=0;exitX=0.5;exitY=0;exitDx=0;exitDy=0;entryX=0.5;entryY=1;entryDx=0;entryDy=0;" edge="1" parent="1" source="kTY9XHKxBu9hv5pl7CMH-12" target="kTY9XHKxBu9hv5pl7CMH-15">
          <mxGeometry width="50" height="50" relative="1" as="geometry">
            <mxPoint x="250" y="320" as="sourcePoint" />
            <mxPoint x="300" y="270" as="targetPoint" />
          </mxGeometry>
        </mxCell>
        <mxCell id="kTY9XHKxBu9hv5pl7CMH-30" value="" style="endArrow=none;html=1;rounded=0;entryX=0;entryY=0.5;entryDx=0;entryDy=0;exitX=0.854;exitY=0.001;exitDx=0;exitDy=0;exitPerimeter=0;" edge="1" parent="1" source="kTY9XHKxBu9hv5pl7CMH-12" target="kTY9XHKxBu9hv5pl7CMH-16">
          <mxGeometry width="50" height="50" relative="1" as="geometry">
            <mxPoint x="380" y="350" as="sourcePoint" />
            <mxPoint x="430" y="300" as="targetPoint" />
            <Array as="points">
              <mxPoint x="300" y="290" />
              <mxPoint x="350" y="290" />
              <mxPoint x="350" y="240" />
            </Array>
          </mxGeometry>
        </mxCell>
        <mxCell id="kTY9XHKxBu9hv5pl7CMH-31" value="" style="endArrow=none;html=1;rounded=0;exitX=1.002;exitY=0.215;exitDx=0;exitDy=0;exitPerimeter=0;entryX=0;entryY=0.5;entryDx=0;entryDy=0;" edge="1" parent="1" source="kTY9XHKxBu9hv5pl7CMH-12" target="kTY9XHKxBu9hv5pl7CMH-22">
          <mxGeometry width="50" height="50" relative="1" as="geometry">
            <mxPoint x="390" y="330" as="sourcePoint" />
            <mxPoint x="440" y="280" as="targetPoint" />
          </mxGeometry>
        </mxCell>
        <mxCell id="kTY9XHKxBu9hv5pl7CMH-32" value="" style="endArrow=none;html=1;rounded=0;exitX=1.002;exitY=0.215;exitDx=0;exitDy=0;exitPerimeter=0;entryX=0;entryY=0.5;entryDx=0;entryDy=0;" edge="1" parent="1">
          <mxGeometry width="50" height="50" relative="1" as="geometry">
            <mxPoint x="320" y="409.71" as="sourcePoint" />
            <mxPoint x="360" y="409.71" as="targetPoint" />
          </mxGeometry>
        </mxCell>
        <mxCell id="kTY9XHKxBu9hv5pl7CMH-33" value="" style="endArrow=none;html=1;rounded=0;exitX=1.002;exitY=0.215;exitDx=0;exitDy=0;exitPerimeter=0;entryX=0;entryY=0.5;entryDx=0;entryDy=0;" edge="1" parent="1">
          <mxGeometry width="50" height="50" relative="1" as="geometry">
            <mxPoint x="480" y="329.71" as="sourcePoint" />
            <mxPoint x="520" y="329.71" as="targetPoint" />
          </mxGeometry>
        </mxCell>
        <mxCell id="kTY9XHKxBu9hv5pl7CMH-34" value="" style="endArrow=none;html=1;rounded=0;exitX=1.002;exitY=0.215;exitDx=0;exitDy=0;exitPerimeter=0;entryX=0;entryY=0.5;entryDx=0;entryDy=0;" edge="1" parent="1">
          <mxGeometry width="50" height="50" relative="1" as="geometry">
            <mxPoint x="480" y="409.71" as="sourcePoint" />
            <mxPoint x="520" y="409.71" as="targetPoint" />
          </mxGeometry>
        </mxCell>
        <mxCell id="kTY9XHKxBu9hv5pl7CMH-35" value="" style="endArrow=none;html=1;rounded=0;entryX=0;entryY=0.5;entryDx=0;entryDy=0;" edge="1" parent="1">
          <mxGeometry width="50" height="50" relative="1" as="geometry">
            <mxPoint x="640" y="409.71" as="sourcePoint" />
            <mxPoint x="680" y="409.71" as="targetPoint" />
          </mxGeometry>
        </mxCell>
        <mxCell id="kTY9XHKxBu9hv5pl7CMH-36" value="" style="endArrow=none;html=1;rounded=0;exitX=1.002;exitY=0.215;exitDx=0;exitDy=0;exitPerimeter=0;entryX=0;entryY=0.5;entryDx=0;entryDy=0;" edge="1" parent="1">
          <mxGeometry width="50" height="50" relative="1" as="geometry">
            <mxPoint x="640" y="329.71" as="sourcePoint" />
            <mxPoint x="680" y="329.71" as="targetPoint" />
          </mxGeometry>
        </mxCell>
      </root>
    </mxGraphModel>
  </diagram>
</mxfile>
